<svg width="56" height="100" viewBox="0 0 56 100" fill="none" xmlns="http://www.w3.org/2000/svg">
<path fill-rule="evenodd" clip-rule="evenodd" d="M42.4282 76.2664C41.7996 76.4757 41.2797 76.926 40.9829 77.5183C40.8358 77.812 40.7481 78.1318 40.7246 78.4594C40.7012 78.787 40.7425 79.116 40.8463 79.4276C40.95 79.7392 41.1141 80.0273 41.3293 80.2755C41.5444 80.5236 41.8063 80.727 42.1001 80.8738L48.1801 83.9129L31.1821 94.1103C29.2069 95.2954 26.7537 95.3023 24.772 94.1279L7.74273 84.036C7.54999 83.9218 7.54894 83.9443 7.75054 83.8465L13.8521 80.8875C14.1478 80.7444 14.4124 80.5444 14.6308 80.299C14.8492 80.0535 15.017 79.7674 15.1248 79.4571C15.2325 79.1467 15.2781 78.8181 15.2587 78.4902C15.2394 78.1622 15.1557 77.8413 15.0122 77.5457C14.8689 77.2501 14.6688 76.9857 14.4233 76.7675C14.1778 76.5493 13.8917 76.3817 13.5813 76.2741C13.271 76.1666 12.9425 76.1212 12.6146 76.1407C12.2867 76.1601 11.9659 76.244 11.6704 76.3875L5.5689 79.3465C2.03011 81.0625 1.8105 86.3317 5.1939 88.3368L22.2232 98.4287C25.7771 100.535 30.2119 100.523 33.7544 98.3975L50.7641 88.1923C54.0281 86.2339 53.8327 81.1484 50.4282 79.4461L44.3364 76.4011C43.7433 76.105 43.057 76.0565 42.4282 76.2664Z" fill="white"/>
<path fill-rule="evenodd" clip-rule="evenodd" d="M28 0C12.6441 0.00011731 0.133849 12.4848 0.109991 27.8362V27.8401C0.109991 27.8486 0.109978 27.858 0.109991 27.8714V27.8792V27.8987V27.9026C0.140241 46.6784 12.5343 64.4883 21.7794 81.9402C23.1758 84.5762 25.3056 86.554 28.0117 86.5536C30.7179 86.5531 32.8485 84.5786 34.2518 81.9422C43.6091 64.3633 55.8913 46.6524 55.89 27.8792C55.8901 12.5109 43.3728 0.00013375 28 0ZM28 5.00005C40.6718 5.00016 50.8902 15.2143 50.8901 27.8792C50.8913 44.4048 39.3731 61.6793 29.8378 79.5926C28.9093 81.337 28.1719 81.5535 28.0117 81.5535C27.8515 81.5536 27.1194 81.3411 26.1973 79.6004C16.7671 61.7991 5.13829 44.4095 5.10988 27.8987V27.8792V27.8694V27.8674C5.10987 27.8614 5.10988 27.8533 5.10988 27.8439V27.84C5.13167 15.1912 15.3436 5.00015 28 5.00005Z" fill="white"/>
<path fill-rule="evenodd" clip-rule="evenodd" d="M27.9886 10.1505C18.2275 10.1505 10.2621 18.116 10.2621 27.8772C10.2621 37.6385 18.2275 45.6059 27.9886 45.6059C37.7498 45.6059 45.7171 37.6385 45.7171 27.8772C45.7171 18.116 37.7498 10.1505 27.9886 10.1505ZM27.9886 15.1505C35.0476 15.1505 40.7171 20.8182 40.7171 27.8772C40.7171 34.9363 35.0476 40.6059 27.9886 40.6059C20.9297 40.6059 15.2621 34.9363 15.2621 27.8772C15.2621 20.8182 20.9297 15.1505 27.9886 15.1505Z" fill="white"/>
</svg>
