<svg width="314" height="219" viewBox="0 0 314 219" fill="none" xmlns="http://www.w3.org/2000/svg">
<path d="M36.26 0.51001H277.07C287.01 0.51001 296.05 4.57001 302.59 11.12C309.13 17.67 313.2 26.7 313.2 36.64V182.69C313.2 192.63 309.14 201.67 302.59 208.21C296.04 214.75 287.01 218.82 277.07 218.82H36.26C26.32 218.82 17.28 214.76 10.74 208.21C4.2 201.66 0.130005 192.63 0.130005 182.69V36.64C0.130005 26.7 4.2 17.66 10.74 11.12C17.28 4.58001 26.32 0.51001 36.26 0.51001ZM17.78 192.58L113.89 109.66L17.78 26.74C16.19 29.69 15.28 33.07 15.28 36.63V182.68C15.28 186.25 16.19 189.62 17.78 192.57V192.58ZM125.45 119.64L29.39 202.51C31.55 203.27 33.86 203.68 36.26 203.68H277.07C279.47 203.68 281.78 203.27 283.94 202.51L187.88 119.64L161.64 142.27C158.85 144.73 154.6 144.81 151.71 142.31L125.43 119.64H125.45ZM199.45 109.67L295.56 192.59C297.16 189.64 298.06 186.26 298.06 182.7V36.65C298.06 33.08 297.15 29.71 295.56 26.76L199.45 109.68V109.67ZM29.39 16.83L130.28 103.87L130.48 104.04L156.67 126.63L182.86 104.03L183.05 103.87L283.94 16.82C281.78 16.06 279.47 15.65 277.07 15.65H36.26C33.86 15.65 31.54 16.06 29.39 16.82V16.83Z" fill="white"/>
</svg>
