<svg width="80" height="81" viewBox="0 0 80 81" fill="none" xmlns="http://www.w3.org/2000/svg">
<path d="M44.42 46.19C39.61 43.87 36.13 40.39 33.81 35.58C33.95 35.42 34.12 35.25 34.28 35.08C34.74 34.59 35.24 34.05 35.54 33.72C36.01 33.18 36.42 32.61 36.77 32C37.08 31.43 37.28 30.93 37.39 30.43C37.64 29.33 37.42 28.27 36.76 27.36C35.13 25.12 33.5 22.88 31.87 20.63C31.41 20 30.85 19.49 30.22 19.12C29.25 18.54 28.16 18.37 27.06 18.62C26.68 18.71 26.31 18.8 25.95 18.91C24.49 19.34 23.28 19.88 22.19 20.62C19.69 22.35 18.29 25.39 18.54 28.56C19.83 44.81 35.21 60.19 51.46 61.48C51.7 61.5 51.95 61.51 52.19 61.51C55.09 61.51 57.81 60.14 59.44 57.77C60.14 56.74 60.69 55.53 61.11 54.08C61.22 53.71 61.31 53.34 61.4 52.97C61.65 51.87 61.48 50.78 60.9 49.81C60.53 49.17 60.02 48.62 59.38 48.15C57.14 46.52 54.9 44.9 52.65 43.26C51.74 42.6 50.68 42.39 49.58 42.63C49.07 42.74 48.57 42.94 47.99 43.26C47.39 43.6 46.82 44.01 46.29 44.47C45.95 44.77 45.42 45.27 44.92 45.73C44.74 45.9 44.57 46.06 44.42 46.2V46.19ZM46.09 48.73C46.32 48.52 46.64 48.22 46.98 47.9C47.44 47.47 47.94 47 48.27 46.71C48.65 46.38 49.05 46.09 49.44 45.87C49.75 45.7 50.01 45.6 50.23 45.55C50.5 45.49 50.67 45.52 50.88 45.68C53.12 47.32 55.37 48.94 57.6 50.57C57.9 50.79 58.13 51.04 58.3 51.33C58.49 51.64 58.53 51.94 58.45 52.29C58.38 52.6 58.3 52.91 58.21 53.22C57.87 54.39 57.47 55.29 56.91 56.11C55.79 57.74 53.79 58.65 51.68 58.48C37.05 57.32 22.67 42.94 21.51 28.31C21.34 26.21 22.25 24.2 23.92 23.05C24.69 22.52 25.6 22.12 26.77 21.78C27.08 21.69 27.38 21.61 27.7 21.54C27.81 21.52 27.91 21.5 28.01 21.5C28.23 21.5 28.44 21.56 28.67 21.7C28.96 21.87 29.21 22.1 29.42 22.39C31.05 24.63 32.68 26.88 34.31 29.12C34.46 29.33 34.5 29.51 34.44 29.78C34.39 30.01 34.29 30.26 34.13 30.55C33.9 30.96 33.61 31.36 33.27 31.75C32.99 32.07 32.52 32.57 32.09 33.03C31.77 33.37 31.47 33.69 31.26 33.92L30.91 34.31C30.51 34.75 30.41 35.38 30.65 35.92C33.37 42.12 37.89 46.64 44.08 49.35C44.62 49.59 45.25 49.49 45.69 49.09L46.08 48.74L46.09 48.73Z" fill="white"/>
<path d="M73.26 17.77C72.8 17.08 71.87 16.9 71.18 17.36C70.49 17.82 70.31 18.75 70.77 19.44C71.67 20.78 72.48 22.19 73.19 23.63C73.45 24.16 73.98 24.47 74.54 24.47C74.76 24.47 74.99 24.42 75.2 24.31C75.94 23.94 76.25 23.04 75.88 22.3C75.11 20.74 74.23 19.22 73.26 17.77Z" fill="white"/>
<path d="M75.04 28.1C75.56 29.62 75.98 31.2 76.29 32.77C76.43 33.48 77.06 33.98 77.76 33.98C77.86 33.98 77.96 33.98 78.05 33.95C78.86 33.79 79.39 33 79.23 32.19C78.89 30.48 78.44 28.78 77.88 27.13C77.61 26.35 76.76 25.93 75.98 26.19C75.2 26.46 74.78 27.31 75.04 28.09V28.1Z" fill="white"/>
<path d="M67.81 15.6C68.11 15.94 68.52 16.11 68.94 16.11C69.29 16.11 69.64 15.99 69.93 15.74C70.55 15.19 70.61 14.25 70.07 13.62C68.92 12.31 67.68 11.07 66.37 9.92002C65.75 9.37002 64.8 9.44002 64.25 10.06C63.7 10.68 63.77 11.63 64.39 12.18C65.6 13.24 66.75 14.39 67.81 15.6Z" fill="white"/>
<path d="M47.21 3.70002C48.79 4.01002 50.37 4.43002 51.89 4.95002C52.05 5.00002 52.21 5.03002 52.37 5.03002C52.99 5.03002 53.58 4.64002 53.79 4.01002C54.06 3.23002 53.64 2.37002 52.85 2.11002C51.2 1.55002 49.5 1.10002 47.79 0.760022C46.98 0.600022 46.19 1.13002 46.03 1.94002C45.87 2.75002 46.4 3.54002 47.21 3.70002Z" fill="white"/>
<path d="M60.55 9.23001C60.81 9.40001 61.1 9.48001 61.38 9.48001C61.86 9.48001 62.34 9.25001 62.63 8.81001C63.09 8.12001 62.91 7.19001 62.22 6.73001C60.77 5.76001 59.25 4.88001 57.69 4.11001C56.95 3.74001 56.05 4.05002 55.68 4.79002C55.31 5.53002 55.62 6.43001 56.36 6.80001C57.8 7.51001 59.21 8.33001 60.55 9.22001V9.23001Z" fill="white"/>
<path d="M78.32 36C77.49 36.05 76.87 36.77 76.92 37.59C76.97 38.39 77 39.2 77 39.99C77 60.39 60.4 76.99 40 76.99C19.6 76.99 3 60.4 3 40C3 19.6 19.6 3.00001 40 3.00001C40.8 3.00001 41.61 3.03001 42.4 3.08001C42.43 3.08001 42.47 3.08001 42.5 3.08001C43.29 3.08001 43.95 2.47001 44 1.68001C44.05 0.85001 43.42 0.14001 42.6 0.0900097C41.74 0.0400097 40.87 0.0100098 40 0.0100098C17.94 0.0100098 0 17.95 0 40.01C0 62.07 17.94 80.01 40 80.01C62.06 80.01 80 62.07 80 40.01C80 39.15 79.97 38.28 79.92 37.41C79.87 36.58 79.17 35.96 78.33 36.01L78.32 36Z" fill="white"/>
</svg>
